<svg xmlns="http://www.w3.org/2000/svg" width="300" height="300" fill="none" viewBox="0 0 300 300"><path fill="#F44336" d="M273.914 75.6797H26.0859L9.375 117.094H290.625L273.914 75.6797Z"/><path fill="#FF7555" d="M234.141 62.3672H65.8594C62.7187 62.3672 59.5781 62.9297 56.6484 64.0547L26.0625 75.6797H273.914L243.328 64.0547C240.398 62.9297 237.281 62.3672 234.141 62.3672Z"/><path fill="#C62828" d="M281.18 275.648H18.8203C13.5937 275.648 9.375 271.43 9.375 266.203V117.094H290.625V266.203C290.625 271.43 286.406 275.648 281.18 275.648Z"/><path stroke="#A80707" stroke-miterlimit="10" stroke-width="2.133" d="M9.375 164.297H290.625"/><path fill="#A80707" d="M96.2109 153H57.4922C55.2891 153 53.4844 154.547 53.4844 156.445V179.203C53.4844 181.102 55.2656 182.648 57.4922 182.648H63.2344V194.508C63.2344 199.57 67.9922 203.672 73.875 203.672H79.8516C85.7109 203.672 90.4922 199.57 90.4922 194.508V182.648H96.2344C98.4375 182.648 100.242 181.102 100.242 179.203V156.445C100.195 154.547 98.4141 153 96.2109 153V153Z"/><path fill="#558EA0" d="M93.4688 177.937H60.2109C58.8047 177.937 57.6797 176.812 57.6797 175.406V151.359C57.6797 149.953 58.8047 148.828 60.2109 148.828H93.4453C94.8516 148.828 95.9766 149.953 95.9766 151.359V175.406C96 176.812 94.8516 177.937 93.4688 177.937V177.937Z"/><path stroke="#332424" stroke-miterlimit="10" stroke-width="2.83" d="M65.6719 164.133H88.0078"/><path fill="#82AEC0" d="M88.0078 160.828H65.6719V148.383C65.6719 146.599 66.3806 144.888 67.642 143.626C68.9035 142.365 70.6144 141.656 72.3984 141.656H81.3047C83.0887 141.656 84.7996 142.365 86.0611 143.626C87.3226 144.888 88.0313 146.599 88.0313 148.383V160.828H88.0078ZM65.6719 167.063H88.0078V191.859C88.0078 192.743 87.8338 193.617 87.4958 194.434C87.1577 195.25 86.6623 195.991 86.0376 196.616C85.413 197.24 84.6715 197.736 83.8554 198.074C83.0393 198.412 82.1646 198.586 81.2813 198.586H72.375C71.4917 198.586 70.617 198.412 69.8009 198.074C68.9848 197.736 68.2432 197.24 67.6186 196.616C66.994 195.991 66.4985 195.25 66.1605 194.434C65.8224 193.617 65.6484 192.743 65.6484 191.859V167.063H65.6719Z"/><path fill="#A1D5E5" d="M83.9767 186.539C84.9845 186.539 86.1798 187.383 86.461 188.883C86.6016 189.727 86.1329 191.461 85.4767 192.023C84.2813 193.031 82.6876 193.688 81.0235 194.086C78.4454 194.719 75.6329 194.836 73.0782 194.156C70.5235 193.5 67.8517 192.211 67.0782 190.078C65.9063 186.82 70.2892 186.586 83.9767 186.539Z"/><path fill="#A80707" d="M242.508 153H203.789C201.586 153 199.781 154.547 199.781 156.445V179.203C199.781 181.102 201.562 182.648 203.789 182.648H209.531V194.508C209.531 199.57 214.289 203.672 220.172 203.672H226.148C232.008 203.672 236.789 199.57 236.789 194.508V182.648H242.531C244.734 182.648 246.539 181.102 246.539 179.203V156.445C246.516 154.547 244.734 153 242.508 153V153Z"/><path fill="#558EA0" d="M239.789 177.937H206.531C205.125 177.937 204 176.812 204 175.406V151.359C204 149.953 205.125 148.828 206.531 148.828H239.766C241.172 148.828 242.297 149.953 242.297 151.359V175.406C242.297 176.812 241.172 177.937 239.789 177.937V177.937Z"/><path stroke="#332424" stroke-miterlimit="10" stroke-width="2.83" d="M211.992 164.133H234.328"/><path fill="#82AEC0" d="M234.328 160.828H211.992V148.383C211.992 146.599 212.701 144.888 213.962 143.626C215.224 142.365 216.935 141.656 218.719 141.656H227.625C229.409 141.656 231.12 142.365 232.381 143.626C233.643 144.888 234.352 146.599 234.352 148.383V160.828H234.328ZM211.992 167.063H234.328V191.859C234.328 192.743 234.154 193.617 233.816 194.434C233.478 195.25 232.983 195.991 232.358 196.616C231.733 197.24 230.992 197.736 230.176 198.074C229.36 198.412 228.485 198.586 227.602 198.586H218.695C217.812 198.586 216.937 198.412 216.121 198.074C215.305 197.736 214.564 197.24 213.939 196.616C213.314 195.991 212.819 195.25 212.481 194.434C212.143 193.617 211.969 192.743 211.969 191.859V167.063H211.992Z"/><path fill="#A1D5E5" d="M230.977 186.539C231.68 186.562 232.969 186.773 233.437 188.156C233.906 189.539 232.969 190.992 231.773 192C230.578 193.008 228.984 193.664 227.32 194.062C224.742 194.695 221.93 194.812 219.375 194.133C216.82 193.476 214.523 192.023 213.375 190.055C211.547 186.937 217.664 185.976 230.977 186.539Z"/><path fill="#424242" d="M212.18 63.3984C211.078 61.9219 207.469 60.4219 206.414 59.8125C199.359 55.6172 200.086 44.0625 195.351 36.5625C191.133 29.8594 183.609 24.375 175.687 24.375H131.461C123.539 24.375 116.016 29.8828 111.797 36.5625C107.062 44.0625 107.789 55.6172 100.734 59.8125C99.703 60.4219 96.0702 61.9453 94.9687 63.3984C93.6093 65.2266 94.9687 67.1484 94.9687 67.1484H107.766C114.023 67.1484 117.539 56.625 118.078 55.1953C120.211 49.3359 124.101 40.6875 131.461 40.6875H175.687C183.047 40.6875 186.937 49.3594 189.07 55.1953C189.586 56.625 193.101 67.1484 199.383 67.1484H212.18C212.18 67.1484 213.539 65.2266 212.18 63.3984V63.3984Z"/><path fill="#616161" d="M120.047 31.3828C123.398 28.5937 127.734 26.9297 132.094 26.9766C133.289 27 134.531 27.1406 135.539 27.7969C136.547 28.4531 137.25 29.6953 136.945 30.8672C136.617 32.1094 135.328 32.8359 134.133 33.3047C129.797 34.9922 124.781 35.3672 121.336 38.4609C118.969 40.5937 117.726 43.6641 116.039 46.3594C115.219 47.6719 114.117 49.0078 112.57 49.1719C112.031 49.2187 111.445 49.1016 111.094 48.7031C110.484 48 110.859 46.9219 111.258 46.1016C112.547 43.4297 113.297 40.6172 114.68 38.0156C116.133 35.3437 118.031 33.5156 120.047 31.3828V31.3828Z"/><path fill="#A1D5E5" d="M77.8124 148.711C74.8124 148.828 71.9062 150.399 70.4062 152.742C70.0546 153.281 69.5624 153.938 68.9062 153.797C68.3906 153.68 68.1796 153.141 68.0624 152.672C67.5702 150.703 67.4062 148.43 68.5546 146.625C69.7499 144.727 72.0702 143.625 74.3202 143.344C78.8671 142.805 82.2421 142.594 83.0156 145.43C83.9296 148.781 80.2031 148.617 77.8124 148.711ZM224.016 148.711C221.016 148.828 218.109 150.399 216.609 152.742C216.258 153.281 215.766 153.938 215.109 153.797C214.594 153.68 214.383 153.141 214.266 152.672C213.773 150.703 213.609 148.43 214.758 146.625C215.953 144.727 218.273 143.625 220.523 143.344C225.07 142.805 228.445 142.594 229.219 145.43C230.156 148.781 226.406 148.617 224.016 148.711V148.711Z"/></svg>