<svg width="301" height="301" viewBox="0 0 301 301" fill="none" xmlns="http://www.w3.org/2000/svg">
<path d="M182.812 179.125L252.187 198.344H199.219L126.562 179.125H182.812Z" fill="#C94747"/>
<path d="M23.4375 104.125H126.562V282.25H23.4375V104.125Z" fill="#F9F3D9"/>
<path d="M126.562 104.125H182.812V179.125H126.562V104.125Z" fill="#DBB471"/>
<path d="M98.4375 38.5L5.15625 104.125H126.562L98.4375 38.5Z" fill="#ED4C5C"/>
<path d="M135.938 47.875H150V85.375H135.938V47.875Z" fill="#D0D0D0"/>
<path d="M150 47.875H159.375V90.0625H150V47.875Z" fill="#94989B"/>
<path d="M98.4375 38.5L201.562 104.125H126.562L98.4375 38.5Z" fill="#C94747"/>
<path d="M131.25 38.5H154.688V47.875H131.25V38.5Z" fill="#D0D0D0"/>
<path d="M154.688 38.5H164.062V47.875H154.688V38.5Z" fill="#94989B"/>
<path d="M60 131.312H90V161.313H60V131.312Z" fill="#D6EEF0"/>
<path d="M56.25 127.562V165.062H93.75V127.562H56.25ZM90 131.312V144.438H76.875V131.312H90ZM73.125 131.312V144.438H60V131.312H73.125V131.312ZM60 161.313V148.187H73.125V161.313H60ZM76.875 161.313V148.187H90V161.313H76.875Z" fill="#89664C"/>
<path d="M143.438 129.438H165.938V163.187H143.438V129.438Z" fill="#D6EEF0"/>
<path d="M141.562 127.562V165.062H167.812V127.562H141.562V127.562ZM145.312 131.312H152.812V144.438H145.312V131.312V131.312ZM145.312 161.313V148.187H152.812V161.313H145.312ZM164.062 161.313H156.563V148.187H164.062V161.313ZM164.062 144.438H156.563V131.312H164.062V144.438ZM64.2188 231.156H93.2812V282.25H64.2188V231.156ZM90 223.656H97.5V231.156H90V223.656Z" fill="#89664C"/>
<path d="M56.7188 231.156H64.2187V282.25H56.7188V231.156Z" fill="#594640"/>
<path d="M53.4375 223.656H90V231.156H53.4375V223.656Z" fill="#DBB471"/>
<path d="M87.1875 256C88.7408 256 90 254.741 90 253.187C90 251.634 88.7408 250.375 87.1875 250.375C85.6342 250.375 84.375 251.634 84.375 253.187C84.375 254.741 85.6342 256 87.1875 256Z" fill="#F9F3D9"/>
<path d="M0.46875 282.25H244.219V301H0.46875V282.25Z" fill="#83BF4F"/>
<path d="M187.031 198.344H230.625V282.25H187.031V198.344Z" fill="#DBB471"/>
<path d="M126.562 198.344H187.031V282.25H126.562V198.344Z" fill="#F9F3D9"/>
<path d="M126.562 179.125H23.4375L0 198.344H199.219L126.562 179.125Z" fill="#ED4C5C"/>
<path d="M132.656 225.062H162.656V255.063H132.656V225.062Z" fill="#D6EEF0"/>
<path d="M128.906 221.312V258.812H166.406V221.312H128.906ZM162.656 225.062V238.187H149.531V225.062H162.656ZM145.781 225.062V238.187H132.656V225.062H145.781ZM132.656 255.063V241.938H145.781V255.063H132.656ZM149.531 255.063V241.938H162.656V255.063H149.531Z" fill="#89664C"/>
<path d="M197.344 223.188H219.844V256.937H197.344V223.188Z" fill="#D6EEF0"/>
<path d="M195.469 221.312V258.812H221.719V221.312H195.469ZM199.219 225.062H206.719V238.187H199.219V225.062ZM199.219 255.063V241.938H206.719V255.063H199.219ZM217.969 255.063H210.469V241.938H217.969V255.063ZM217.969 238.187H210.469V225.062H217.969V238.187Z" fill="#89664C"/>
<path d="M243.281 282.25H299.531V301H243.281V282.25Z" fill="#699635"/>
<path d="M244.688 160.375H263.438V282.25H244.688V160.375Z" fill="#D3976E"/>
<path d="M263.437 160.375H256.406V162.719C256.406 173.5 252.656 173.5 252.656 184.281C252.656 195.062 256.406 195.062 256.406 205.375C256.406 216.156 252.656 216.156 252.656 226.938C252.656 237.719 256.406 237.719 256.406 248.031C256.406 258.813 252.656 258.813 252.656 269.125C252.656 275.688 253.594 278.5 254.531 281.781H262.969C263.437 282.25 263.437 160.375 263.437 160.375" fill="#89664C"/>
<path d="M249.375 14.5938C240.469 27.25 229.688 4.28125 215.625 23.9688C201.563 43.6562 209.063 61 213.281 73.6563C221.719 99.4375 204.375 107.406 216.094 128.969C227.344 150.531 210.938 160.844 232.5 172.562C254.063 184.281 243.281 158.969 265.313 173.969C287.344 188.969 290.156 163.656 287.813 154.281C283.125 136.937 295.781 132.719 299.531 118.188C305.625 92.4063 285 78.3438 291.563 53.9688C297.188 30.0625 276.094 -24.3125 249.375 14.5938" fill="#83BF4F"/>
<path d="M290.625 54.4375C295.781 36.1562 285 1 268.125 1C268.125 1 279.375 16 263.438 34.75C247.5 53.5 277.031 62.875 263.438 80.2187C249.844 97.5625 276.094 114.438 265.781 128.031C253.125 144.906 232.969 142.562 244.688 174.906V175.375C249.375 172.563 249.844 164.594 264.375 174.438C286.406 189.438 289.219 164.125 286.875 154.75C282.188 137.406 294.844 133.188 298.594 118.656C305.156 92.875 284.531 78.8125 290.625 54.4375" fill="#699635"/>
<path d="M270.938 53.5C267.656 53.5 272.813 50.6875 272.813 46.9375C272.813 43.1875 267.656 40.375 270.938 40.375C274.219 40.375 277.5 43.1875 277.5 46.9375C277.5 50.6875 274.688 53.5 270.938 53.5ZM279.375 110.219C274.219 110.219 282.188 106 282.188 100.844C282.188 95.6875 274.219 91.4687 279.375 91.4687C284.531 91.4687 288.75 95.6875 288.75 100.844C288.75 106 284.531 110.219 279.375 110.219ZM270.938 158.031C267.188 158.031 270.938 154.75 270.938 151C270.938 147.25 267.188 143.969 270.938 143.969C274.688 143.969 277.969 147.25 277.969 151C277.969 154.75 274.688 158.031 270.938 158.031ZM231.094 57.7188C234.844 57.7188 230.156 61 230.156 64.75C230.156 68.5 235.313 71.7813 231.094 71.7813C226.875 71.7813 224.062 68.5 224.062 64.75C224.062 61 227.344 57.7188 231.094 57.7188ZM246.562 31C251.719 31 244.219 35.2187 244.219 40.375C244.219 45.5312 252.187 49.75 246.562 49.75C241.406 49.75 237.187 45.5312 237.187 40.375C237.187 35.2187 240.937 31 246.562 31" fill="#83BF4F"/>
<path d="M242.344 102.25C250.313 102.25 239.062 108.344 239.062 116.312C239.062 124.281 249.844 130.375 242.344 130.375C234.375 130.375 228.281 124.281 228.281 116.312C228.281 108.344 234.375 102.25 242.344 102.25ZM246.562 76.4688C250.312 76.4688 246.562 79.75 246.562 83.5C246.562 87.25 250.312 90.5312 246.562 90.5312C242.812 90.5312 239.531 87.25 239.531 83.5C239.531 79.75 242.812 76.4688 246.562 76.4688Z" fill="#699635"/>
<path d="M272.344 268.188H274.219V282.25H272.344V268.188Z" fill="#83BF4F"/>
<path d="M268.125 253.656V264.437C268.125 266.312 269.531 268.187 271.875 268.187H275.625V260.688C275.156 255.531 268.125 253.656 268.125 253.656" fill="#C94747"/>
<path d="M278.906 253.656V264.437C278.906 266.312 277.5 268.187 275.156 268.187H271.406V260.688C271.406 255.531 278.906 253.656 278.906 253.656" fill="#ED4C5C"/>
<path d="M292.969 257.406H294.844V282.25H292.969V257.406Z" fill="#83BF4F"/>
<path d="M288.75 242.406V253.187C288.75 255.062 290.156 256.937 292.5 256.937H296.25V249.438C295.781 244.75 288.75 242.406 288.75 242.406" fill="#C94747"/>
<path d="M299.531 242.406V253.187C299.531 255.062 298.125 256.937 295.781 256.937H292.031V249.438C292.031 244.75 299.531 242.406 299.531 242.406" fill="#ED4C5C"/>
<path d="M275.156 236.312V247.094C275.156 248.969 276.562 250.844 278.906 250.844H282.656V243.344C282.656 238.656 275.156 236.312 275.156 236.312" fill="#F2B200"/>
<path d="M286.406 236.312V247.094C286.406 248.969 285 250.844 282.656 250.844H278.906V243.344C278.906 238.656 286.406 236.312 286.406 236.312" fill="#FFCE31"/>
<path d="M279.844 251.312H281.719V282.25H279.844V251.312Z" fill="#83BF4F"/>
<path d="M260.156 241.938V252.719C260.156 254.594 262.031 256.469 263.906 256.469H267.188V249.437C267.188 243.812 260.156 241.938 260.156 241.938Z" fill="#F2B200"/>
<path d="M270.937 241.938V252.719C270.937 254.594 269.531 256.469 267.187 256.469H263.438V249.437C263.438 243.812 270.937 241.938 270.937 241.938" fill="#FFCE31"/>
<path d="M264.375 256.469H266.25V282.25H264.375V256.469ZM229.688 268.188H231.563V282.25H229.688V268.188Z" fill="#83BF4F"/>
<path d="M225 253.656V264.437C225 266.312 226.406 268.187 228.75 268.187H232.5V260.688C232.5 255.531 225 253.656 225 253.656" fill="#C94747"/>
<path d="M236.25 253.656V264.437C236.25 266.312 234.844 268.187 232.5 268.187H228.75V260.688C228.75 255.531 236.25 253.656 236.25 253.656" fill="#ED4C5C"/>
<path d="M250.312 257.406H252.187V282.25H250.312V257.406Z" fill="#83BF4F"/>
<path d="M245.625 242.406V253.187C245.625 255.062 247.031 256.937 249.375 256.937H253.125V249.438C253.125 244.75 245.625 242.406 245.625 242.406" fill="#C94747"/>
<path d="M256.875 242.406V253.187C256.875 255.062 255.469 256.937 253.125 256.937H249.375V249.438C249.375 244.75 256.875 242.406 256.875 242.406" fill="#ED4C5C"/>
<path d="M232.5 236.312V247.094C232.5 248.969 233.906 250.844 236.25 250.844H240V243.344C240 238.656 232.5 236.312 232.5 236.312" fill="#F2B200"/>
<path d="M243.281 236.312V247.094C243.281 248.969 241.875 250.844 239.531 250.844H235.781V243.344C236.25 238.656 243.281 236.312 243.281 236.312" fill="#FFCE31"/>
<path d="M237.188 251.312H239.063V282.25H237.188V251.312Z" fill="#83BF4F"/>
<path d="M217.031 241.938V252.719C217.031 254.594 218.437 256.469 220.781 256.469H224.531V249.437C224.531 243.812 217.031 241.938 217.031 241.938" fill="#C94747"/>
<path d="M228.281 241.938V252.719C228.281 254.594 226.875 256.469 224.531 256.469H220.781V249.437C220.781 243.812 228.281 241.938 228.281 241.938" fill="#ED4C5C"/>
<path d="M221.719 256.469H223.594V282.25H221.719V256.469Z" fill="#83BF4F"/>
</svg>
