<svg xmlns="http://www.w3.org/2000/svg" width="300" height="300" fill="none" viewBox="0 0 300 300"><path fill="#82AEC0" d="M29.8827 277.852C45.4687 293.438 64.4062 288.023 75.3515 275.555C86.5312 262.805 92.4843 255.398 92.4843 255.398C106.43 234.867 164.039 166.242 213.211 116.859C220.055 119.672 227.32 121.148 234.609 121.148C247.594 121.148 260.601 116.672 271.008 107.695C277.196 102.379 282.145 95.7712 285.506 88.3369C288.867 80.9026 290.558 72.8222 290.461 64.6641C290.437 63.5157 289.828 62.4375 288.82 61.875C287.812 61.3125 286.594 61.3125 285.586 61.875L251.719 81.4219C235.359 75.7735 225.68 58.9453 229.008 42.1172L262.758 22.6407C263.766 22.0547 264.375 21 264.375 19.8282C264.375 18.6563 263.766 17.6016 262.758 17.0157C240.844 4.19535 213 7.80473 195.047 25.7578C189.657 31.1627 185.428 37.6113 182.619 44.7085C179.81 51.8057 178.48 59.4019 178.711 67.0313C178.965 75.8308 181.311 84.4432 185.555 92.1563C131.226 146.32 64.9452 204.891 47.6952 217.969C47.6952 217.969 37.3124 225.492 27.3984 235.688C17.6249 245.742 13.9921 261.961 29.8827 277.852V277.852ZM41.2968 253.875C41.2968 246.984 46.8749 241.383 53.789 241.383C60.703 241.383 66.2812 246.961 66.2812 253.875C66.2812 260.766 60.703 266.367 53.789 266.367C46.8749 266.367 41.2968 260.766 41.2968 253.875V253.875Z"/><path fill="#2F7889" d="M178.125 99.539C180.563 97.125 183.047 94.6875 185.578 92.1562C181.335 84.4432 178.989 75.8307 178.734 67.0312C178.547 60.9375 179.367 54.914 181.102 49.1718C182.648 46.6406 185.086 43.9218 186.633 45.5625C186 65.5078 191.789 86.2968 205.664 100.641C212.555 107.766 221.508 112.898 231.117 115.312C235.852 116.508 240.773 117.047 245.672 116.766C248.555 116.602 256.617 113.625 258.234 115.828V115.922C250.832 119.356 242.769 121.132 234.609 121.125C227.32 121.125 220.031 119.648 213.211 116.836C197.297 132.82 184.125 147.211 173.062 160.078C178.594 149.625 194.883 130.359 199.242 123C200.227 121.336 201.586 117.07 198.492 113.227C194.109 107.836 185.133 102.82 178.125 99.539V99.539Z"/><path fill="#B9E4EA" d="M111.75 182.226C113.016 180.914 111.82 178.711 110.039 179.109C106.711 179.836 101.906 181.734 96.1875 186.375C84.9844 195.469 55.4063 220.031 51.75 224.883C48.0938 229.734 62.7656 224.812 67.9219 223.898C72.1641 223.125 101.719 192.656 111.75 182.226V182.226ZM214.289 25.6171C208.031 30.0937 202.406 35.414 196.547 40.4062C195.047 41.6952 192.82 42.9843 191.273 41.7655C189.586 40.4296 190.641 37.7343 191.906 35.9999C202.992 20.7655 223.688 9.86711 243.703 14.203C233.156 17.6015 223.664 18.914 214.289 25.6171V25.6171Z"/><path fill="#2F7889" d="M264.047 77.9062C261.586 79.3827 258.164 81.3515 256.219 81.914C253.852 82.5702 247.148 79.9686 245.203 78.4218C253.219 73.1952 262.148 67.3593 270.164 62.1327C271.078 61.5468 271.992 60.9374 273.047 60.6093C274.289 60.2108 275.648 60.2577 276.961 60.3046C278.789 60.3983 287.719 60.0936 288.773 61.664C289.828 63.2577 286.125 64.8046 284.906 65.5311C277.945 69.6796 270.984 73.7812 264.047 77.9062ZM168.281 164.461L142.055 134.226C132.562 143.156 123.164 151.851 114.188 160.078L121.828 158.414C125.18 157.711 128.648 158.742 131.086 161.156L143.32 174.867C145.898 177.445 146.32 181.922 145.336 185.437L143.977 191.93C151.711 183 159.891 173.742 168.281 164.461Z"/><path fill="#A06841" d="M284.508 273.539L268.805 287.109C262.758 292.336 253.57 291.633 248.391 285.586L62.2734 60.9375L86.2031 42.9375L285.703 253.336C286.979 254.727 287.963 256.361 288.596 258.139C289.228 259.918 289.497 261.806 289.385 263.691C289.274 265.575 288.784 267.418 287.947 269.11C287.109 270.802 285.939 272.308 284.508 273.539V273.539Z"/><path fill="#7D5133" d="M79.2891 81.4687L123.586 134.953C130.5 124.547 134.016 112.078 136.852 96.3281L94.0781 51.2109C90.6017 54.0471 87.6437 57.465 85.3359 61.3125C81.7031 67.4297 79.8047 74.3672 79.2891 81.4687V81.4687Z"/><path fill="#82AEC0" d="M167.086 11.5782C126.445 11.1094 111.398 14.7188 88.7579 34.2891C81.961 40.1485 75.1876 46.0079 68.3907 51.8907C61.0079 58.2657 51.1876 63.8438 52.7344 74.8594C53.2969 78.8907 54.5391 82.9688 53.7891 86.9532C53.0626 90.7266 48.6797 92.6016 45.5626 90.4454C42.6329 88.4298 39.3985 85.9454 35.7891 85.5235C32.4141 85.1485 28.8516 86.2032 26.2969 88.4766L10.5469 102.469C10.5469 102.469 8.29694 111.633 25.9219 131.578C43.5469 151.524 54.8907 150.094 54.8907 150.094L69.7032 137.063C72.1876 134.883 73.4766 131.672 73.4063 128.367C73.336 124.5 71.086 121.5 69.7266 118.031C69.4688 117.375 67.9922 115.031 70.5704 112.898C72.8672 110.906 77.6016 111.586 80.2969 112.313C82.9922 113.039 85.5704 114.188 88.2891 114.891C93.586 116.274 96.0704 113.813 99.7501 110.648C103.008 107.836 122.625 90.8907 129.164 85.2188C142.219 73.9219 122.32 54.1407 122.32 54.1407C112.945 43.5235 169.828 16.8282 169.828 16.8282C174 15.3751 172.734 11.6251 167.086 11.5782V11.5782Z"/><path fill="#2F7889" d="M88.3126 114.914C89.4141 115.195 90.3751 115.289 91.2657 115.266V114.82C91.0313 112.289 89.6485 109.992 88.2423 107.859C79.4359 94.4623 68.5583 82.5483 56.0157 72.5625C54.9844 71.7422 53.9063 70.9219 52.7813 70.2188C52.5469 71.6484 52.5001 73.1953 52.7344 74.8594C53.2969 78.8906 54.5391 82.9687 53.7891 86.9531C52.9922 91.0781 48.6797 92.2266 45.3751 90.6797C53.9766 96.2344 61.336 103.641 66.7032 112.359C67.4297 113.531 68.1563 114.773 69.0001 115.898C69.1172 114.75 69.6329 113.648 70.5938 112.922C72.8907 110.93 77.6251 111.609 80.3204 112.336C83.0391 113.039 85.5938 114.187 88.3126 114.914V114.914ZM39.8438 119.883C52.1954 132.797 59.1329 146.18 55.336 149.812C51.5626 153.422 38.4844 145.898 26.1329 133.008C13.7813 120.117 6.7735 106.102 10.5469 102.469C14.3204 98.8594 27.4922 106.969 39.8438 119.883Z"/><path fill="#B9E4EA" d="M87.914 53.1562C97.7343 48.9843 106.477 40.0312 117.914 30.164C121.172 27.3515 125.32 24.6796 129.562 22.664C131.156 21.914 130.57 19.5234 128.812 19.5468C122.93 19.6406 117.68 21.4218 112.523 23.6718C105.305 26.8124 98.9296 31.5702 92.789 36.4921C88.5703 39.8671 78.6796 48.2109 72.4453 53.4843C71.2734 54.4687 72.1875 56.0156 73.7109 56.0156C78.0937 56.0624 80.5546 56.2968 87.914 53.1562ZM26.0625 94.1249C21.914 98.789 27.2109 100.055 36.5156 107.742C43.0781 113.18 50.0624 108.141 50.1328 103.055C50.1796 98.4843 49.0312 96.0234 42.3984 91.8515C35.7656 87.6796 29.8125 89.9062 26.0625 94.1249V94.1249Z"/></svg>