<?xml version="1.0" encoding="UTF-8"?><svg id="Calque_2" xmlns="http://www.w3.org/2000/svg" viewBox="0 0 102.51 47.97"><defs><style>.cls-1{fill:#fff;}.cls-2{fill:#7bb33a;}</style></defs><g id="logo"><path id="tracé" class="cls-2" d="M0,41.62c3.56-2.37,9.05-5.29,16.09-6.13,6.84-.81,11.94,.73,16.43,1.96,38.67,10.56,60.61,5.57,63.78,4.7,.82-.23,1.81-.57,1.83-.52,.06,.17-10.2,5.63-23.22,6.28-2.19,.11-3.81,.05-5.09,0-13.4-.53-17.83-4.72-38.22-8.24-.69-.12-1.05-.18-1.57-.26-13.22-2.05-23.36,.02-30.04,2.22Z"/><path id="maison" class="cls-2" d="M63.45,46.27l19.01,.4c2.31,.02,4.19-1.84,4.19-4.15v-7.79c0-.3,.24-.54,.54-.54h2.47c.23,0,.43-.14,.51-.36l.4-1.12c.07-.21,.01-.44-.15-.59l-19.08-17.21c-.09-.08-1.4-.41-1.52-.42l-22.76,.15c-.13-.01-.24-.06-.33-.15l-7.66-7.54c-.1-.1-.24-.15-.38-.15h-8.17c-.14,0-.27,.05-.37,.15L6.6,29.09c-.17,.16-.22,.42-.11,.63l.56,1.12c.16,.31,.56,.4,.83,.17l1.85-1.56c.35-.29,.89-.05,.89,.41v7.99l6.46-.02,14.35-.03,11.93,2.74,20.1,5.72Z"/><g id="panneaux"><path class="cls-1" d="M74.38,24.7h4.57c.14,0,.4,.03,.49,.14l4.95,5.07c.26,.3,.05,.78-.34,.78h-4.42c-.17,0-.34-.07-.46-.2l-5.01-5.25c-.19-.2-.05-.54,.22-.54Z"/><path class="cls-1" d="M66.47,24.7h4.57c.14,0,.4,.03,.49,.14l4.95,5.07c.26,.3,.05,.78-.34,.78h-4.42c-.17,0-.34-.07-.46-.2l-5.01-5.25c-.19-.2-.05-.54,.22-.54Z"/><path class="cls-1" d="M57.58,24.7h4.57c.14,0,.4,.03,.49,.14l4.95,5.07c.26,.3,.05,.78-.34,.78h-4.42c-.17,0-.34-.07-.46-.2l-5.01-5.25c-.19-.2-.05-.54,.22-.54Z"/><path class="cls-1" d="M48.83,24.7h4.57c.14,0,.4,.03,.49,.14l4.95,5.07c.26,.3,.05,.78-.34,.78h-4.42c-.17,0-.34-.07-.46-.2l-5.01-5.25c-.19-.2-.05-.54,.22-.54Z"/><path class="cls-1" d="M67.02,16.98h4.57c.14,0,.4,.03,.49,.14l4.95,5.07c.26,.3,.05,.78-.34,.78h-4.42c-.17,0-.34-.07-.46-.2l-5.01-5.25c-.19-.2-.05-.54,.22-.54Z"/><path class="cls-1" d="M59.03,16.98h4.57c.14,0,.4,.03,.49,.14l4.95,5.07c.26,.3,.05,.78-.34,.78h-4.42c-.17,0-.34-.07-.46-.2l-5.01-5.25c-.19-.2-.05-.54,.22-.54Z"/><path class="cls-1" d="M50.49,16.98h4.57c.14,0,.4,.03,.49,.14l4.95,5.07c.26,.3,.05,.78-.34,.78h-4.42c-.17,0-.34-.07-.46-.2l-5.01-5.25c-.19-.2-.05-.54,.22-.54Z"/><path class="cls-1" d="M41.5,16.98h4.57c.14,0,.4,.03,.49,.14l4.95,5.07c.26,.3,.05,.78-.34,.78h-4.42c-.17,0-.34-.07-.46-.2l-5.01-5.25c-.19-.2-.05-.54,.22-.54Z"/><path class="cls-1" d="M34.35,9h4.57c.14,0,.4,.03,.49,.14l4.95,5.07c.26,.3,.05,.78-.34,.78h-4.42c-.17,0-.34-.07-.46-.2l-5.01-5.25c-.19-.2-.05-.54,.22-.54Z"/></g><g id="leaf"><path id="leaf-2" class="cls-2" d="M71.61,20.36c-2.33-4.18-.25-9.06,.39-10.57C75.05,2.63,82.82-.62,83.48,.1c.31,.34-.83,1.68-.39,2.13,.46,.47,3.59-.44,4.09-.54,4.91-1,13.2,2.01,14.94,4.45,.42,.59,.59,1.77,.05,2.22-6.81,5.59-12.62,6.91-12.56,9.26,.03,1.27,1.91,1.45,2.74,4.17,.24,.8,.62,2.05,.13,3-1.33,2.57-8.19,1.31-9.65,1.04-4.65-.85-9.09-1.67-11.22-5.48Z"/><path class="cls-1" d="M70.84,19.46v-.98c0-.13,.04-.25,.13-.35l4.3-5.17c.05-.06,.09-.13,.11-.21l.31-1.14c.04-.14,.1-.27,.17-.39l1.35-2.11s.06-.08,.09-.11l2.69-2.5-1.55,2.58-.02,.03-1.47,2.14,.98-.15,3.85-2.36s.08-.04,.13-.06l2.97-.91,2.34-.62s.08-.02,.12-.02l3.07-.14,4.69-.36-4.05,1.22-.1,.02-3.48,.24s-.06,0-.08,.01l-3.43,.77-.3,.83,1.37,.38s.07,.02,.1,.04l1.31,.66c.06,.03,.12,.05,.18,.06l1.88,.23-1.77,.52c-.14,.04-.28,.03-.41-.04l-1.52-.79s-.09-.04-.14-.05l-1.47-.48-.9-.27-2.14,.73c-.07,.02-.14,.06-.2,.12l-6.32,5.84s-.06,.07-.09,.1l-1.77,2.73,2.3-.83,2.58-.87h.03l3.89-1.62-1.33,.99c-.43,.32-.2,1,.34,.99l2.28-.03,.3,.09,3.99,2.59-4.54-1.65,1.58,2.17-2.71-2.11c-.09-.07-.21-.11-.33-.12l-3.67-.05s-.08,0-.12,.01l-1.76,.36c-.06,.01-.11,.03-.16,.06l-2.08,1.2c-.23,.13-.51,.08-.69-.11l-.68-.77c-.09-.1-.14-.23-.14-.36Z"/></g></g></svg>