<svg xmlns="http://www.w3.org/2000/svg" width="411" height="70" fill="none" viewBox="0 0 411 70"><g id="logo+txtb"><g id="typo"><path id="MULTI-SERVICES" fill="#000" d="M166.403 49.3663L168.82 58.6212L171.229 49.3663H174.604V62.1631H172.011V58.7003L172.248 53.3653L169.69 62.1631H167.933L165.375 53.3653L165.612 58.7003V62.1631H163.028V49.3663H166.403ZM185.01 49.3663V58.2256C184.998 59.5557 184.632 60.5753 183.911 61.2842C183.19 61.9874 182.156 62.3389 180.809 62.3389C179.438 62.3389 178.389 61.9815 177.662 61.2667C176.941 60.5518 176.581 59.5176 176.581 58.1641V49.3663H179.183V58.1729C179.183 58.8995 179.3 59.418 179.534 59.7286C179.769 60.0391 180.193 60.1944 180.809 60.1944C181.424 60.1944 181.846 60.0421 182.074 59.7374C182.303 59.4268 182.42 58.92 182.426 58.2169V49.3663H185.01ZM189.554 60.0186H194.089V62.1631H186.97V49.3663H189.554V60.0186ZM202.061 51.5196H198.896V62.1631H196.304V51.5196H193.192V49.3663H202.061V51.5196ZM206.244 62.1631H203.66V49.3663H206.244V62.1631ZM212.766 57.7159H208.468V55.6417H212.766V57.7159ZM220.359 58.8057C220.359 58.2842 220.225 57.8917 219.955 57.628C219.691 57.3585 219.208 57.0801 218.505 56.793C217.222 56.3067 216.299 55.7383 215.736 55.088C215.174 54.4317 214.893 53.6583 214.893 52.7676C214.893 51.6895 215.273 50.8253 216.035 50.1749C216.803 49.5186 217.775 49.1905 218.953 49.1905C219.738 49.1905 220.438 49.3575 221.054 49.6915C221.669 50.0196 222.141 50.4854 222.469 51.0889C222.803 51.6924 222.97 52.378 222.97 53.1456H220.395C220.395 52.5479 220.266 52.0938 220.008 51.7833C219.756 51.4669 219.39 51.3087 218.909 51.3087C218.458 51.3087 218.106 51.4434 217.854 51.713C217.603 51.9766 217.477 52.334 217.477 52.7852C217.477 53.1368 217.617 53.4561 217.898 53.7432C218.18 54.0245 218.678 54.3174 219.393 54.6221C220.641 55.0733 221.546 55.627 222.108 56.2833C222.677 56.9395 222.961 57.7745 222.961 58.7881C222.961 59.9014 222.606 60.7715 221.897 61.3985C221.188 62.0255 220.225 62.3389 219.006 62.3389C218.18 62.3389 217.427 62.169 216.747 61.8292C216.067 61.4893 215.534 61.003 215.147 60.3702C214.767 59.7374 214.576 58.9903 214.576 58.129H217.169C217.169 58.8672 217.312 59.4034 217.6 59.7374C217.887 60.0714 218.355 60.2383 219.006 60.2383C219.908 60.2383 220.359 59.7608 220.359 58.8057ZM231.284 56.626H227.259V60.0186H232.022V62.1631H224.675V49.3663H232.005V51.5196H227.259V54.543H231.284V56.626ZM237.393 57.4874H236.109V62.1631H233.525V49.3663H237.647C238.942 49.3663 239.941 49.7032 240.645 50.377C241.354 51.045 241.708 51.9971 241.708 53.2335C241.708 54.9327 241.09 56.1221 239.854 56.8018L242.095 62.0401V62.1631H239.317L237.393 57.4874ZM236.109 55.334H237.577C238.093 55.334 238.479 55.1641 238.737 54.8243C238.995 54.4786 239.124 54.0186 239.124 53.4444C239.124 52.1612 238.623 51.5196 237.621 51.5196H236.109V55.334ZM247.474 58.6475L249.627 49.3663H252.51L248.818 62.1631H246.129L242.464 49.3663H245.329L247.474 58.6475ZM256.412 62.1631H253.828V49.3663H256.412V62.1631ZM267.258 57.9005C267.193 59.3594 266.783 60.4639 266.027 61.2139C265.271 61.9639 264.205 62.3389 262.828 62.3389C261.381 62.3389 260.271 61.8643 259.497 60.9151C258.729 59.96 258.346 58.6006 258.346 56.837V54.6837C258.346 52.9258 258.744 51.5723 259.541 50.6231C260.338 49.668 261.445 49.1905 262.863 49.1905C264.258 49.1905 265.315 49.5801 266.036 50.3594C266.763 51.1387 267.176 52.2579 267.275 53.7169H264.683C264.659 52.8145 264.519 52.1934 264.261 51.8536C264.009 51.5079 263.543 51.335 262.863 51.335C262.172 51.335 261.683 51.5782 261.396 52.0645C261.108 52.545 260.956 53.3389 260.938 54.4464V56.8633C260.938 58.1348 261.079 59.0079 261.36 59.4825C261.647 59.9571 262.137 60.1944 262.828 60.1944C263.508 60.1944 263.977 60.0303 264.234 59.7022C264.492 59.3682 264.639 58.7676 264.674 57.9005H267.258ZM275.458 56.626H271.433V60.0186H276.196V62.1631H268.849V49.3663H276.179V51.5196H271.433V54.543H275.458V56.626ZM283.096 58.8057C283.096 58.2842 282.961 57.8917 282.691 57.628C282.428 57.3585 281.944 57.0801 281.241 56.793C279.958 56.3067 279.035 55.7383 278.473 55.088C277.91 54.4317 277.629 53.6583 277.629 52.7676C277.629 51.6895 278.01 50.8253 278.771 50.1749C279.539 49.5186 280.512 49.1905 281.689 49.1905C282.475 49.1905 283.175 49.3575 283.79 49.6915C284.405 50.0196 284.877 50.4854 285.205 51.0889C285.539 51.6924 285.706 52.378 285.706 53.1456H283.131C283.131 52.5479 283.002 52.0938 282.744 51.7833C282.492 51.4669 282.126 51.3087 281.646 51.3087C281.194 51.3087 280.843 51.4434 280.591 51.713C280.339 51.9766 280.213 52.334 280.213 52.7852C280.213 53.1368 280.354 53.4561 280.635 53.7432C280.916 54.0245 281.414 54.3174 282.129 54.6221C283.377 55.0733 284.282 55.627 284.845 56.2833C285.413 56.9395 285.697 57.7745 285.697 58.7881C285.697 59.9014 285.343 60.7715 284.634 61.3985C283.925 62.0255 282.961 62.3389 281.742 62.3389C280.916 62.3389 280.163 62.169 279.483 61.8292C278.804 61.4893 278.271 61.003 277.884 60.3702C277.503 59.7374 277.312 58.9903 277.312 58.129H279.905C279.905 58.8672 280.049 59.4034 280.336 59.7374C280.623 60.0714 281.092 60.2383 281.742 60.2383C282.645 60.2383 283.096 59.7608 283.096 58.8057Z"/><g id="titre"><g id="ALSACECORENOV"><path fill="#000" d="M175.171 39.5686H168.667L167.401 44.4024H162.357L169.737 20.785H174.101L181.53 44.4024H176.436L175.171 39.5686ZM169.705 35.5945H174.117L171.911 27.176L169.705 35.5945ZM188.521 40.4445H196.891V44.4024H183.752V20.785H188.521V40.4445ZM209.624 38.2061C209.624 37.2436 209.375 36.5191 208.878 36.0325C208.391 35.5351 207.499 35.0214 206.201 34.4915C203.833 33.594 202.13 32.545 201.092 31.3447C200.054 30.1336 199.535 28.7061 199.535 27.0624C199.535 25.0727 200.238 23.4777 201.643 22.2773C203.06 21.0662 204.855 20.4606 207.029 20.4606C208.478 20.4606 209.77 20.7688 210.905 21.3852C212.041 21.9908 212.911 22.8505 213.517 23.9643C214.133 25.0781 214.442 26.3433 214.442 27.7599H209.689C209.689 26.6569 209.451 25.8189 208.975 25.2457C208.51 24.6618 207.834 24.3698 206.948 24.3698C206.115 24.3698 205.466 24.6185 205.001 25.116C204.536 25.6026 204.304 26.2622 204.304 27.0949C204.304 27.7437 204.563 28.3331 205.082 28.8629C205.601 29.382 206.52 29.9227 207.84 30.485C210.143 31.3177 211.814 32.3396 212.852 33.5507C213.901 34.7619 214.425 36.3028 214.425 38.1736C214.425 40.2282 213.771 41.8341 212.463 42.9912C211.154 44.1482 209.375 44.7268 207.126 44.7268C205.601 44.7268 204.212 44.4132 202.957 43.786C201.703 43.1588 200.719 42.2612 200.005 41.0934C199.302 39.9255 198.951 38.5467 198.951 36.9571H203.736C203.736 38.3196 204.001 39.3091 204.531 39.9255C205.061 40.5418 205.926 40.85 207.126 40.85C208.791 40.85 209.624 39.9687 209.624 38.2061ZM228.862 39.5686H222.357L221.092 44.4024H216.047L223.428 20.785H227.791L235.22 44.4024H230.127L228.862 39.5686ZM223.395 35.5945H227.807L225.601 27.176L223.395 35.5945ZM253.095 36.5353C252.977 39.228 252.22 41.2664 250.825 42.6505C249.43 44.0347 247.461 44.7268 244.92 44.7268C242.249 44.7268 240.2 43.8509 238.773 42.099C237.356 40.3364 236.648 37.8276 236.648 34.5726V30.5986C236.648 27.3544 237.383 24.8564 238.854 23.1046C240.324 21.3419 242.368 20.4606 244.985 20.4606C247.559 20.4606 249.511 21.1797 250.841 22.618C252.182 24.0562 252.944 26.1216 253.128 28.8143H248.343C248.3 27.149 248.04 26.0027 247.564 25.3755C247.099 24.7375 246.24 24.4185 244.985 24.4185C243.709 24.4185 242.806 24.8672 242.276 25.7648C241.746 26.6515 241.465 28.1168 241.433 30.1606V34.6213C241.433 36.9679 241.692 38.5791 242.211 39.4551C242.741 40.331 243.644 40.7689 244.92 40.7689C246.175 40.7689 247.04 40.4662 247.516 39.8606C247.991 39.2442 248.262 38.1358 248.327 36.5353H253.095Z"/><path fill="#7BB33A" d="M268.229 34.1833H260.8V40.4445H269.592V44.4024H256.031V20.785H269.559V24.7591H260.8V30.339H268.229V34.1833ZM288.359 36.5353C288.24 39.228 287.483 41.2664 286.088 42.6505C284.693 44.0347 282.725 44.7268 280.184 44.7268C277.513 44.7268 275.464 43.8509 274.036 42.099C272.62 40.3364 271.911 37.8276 271.911 34.5726V30.5986C271.911 27.3544 272.647 24.8564 274.118 23.1046C275.588 21.3419 277.632 20.4606 280.249 20.4606C282.823 20.4606 284.775 21.1797 286.105 22.618C287.446 24.0562 288.208 26.1216 288.392 28.8143H283.607C283.563 27.149 283.304 26.0027 282.828 25.3755C282.363 24.7375 281.503 24.4185 280.249 24.4185C278.973 24.4185 278.07 24.8672 277.54 25.7648C277.01 26.6515 276.729 28.1168 276.697 30.1606V34.6213C276.697 36.9679 276.956 38.5791 277.475 39.4551C278.005 40.331 278.908 40.7689 280.184 40.7689C281.438 40.7689 282.304 40.4662 282.779 39.8606C283.255 39.2442 283.526 38.1358 283.59 36.5353H288.359ZM307.921 34.7186C307.921 37.8871 307.17 40.3472 305.667 42.099C304.174 43.8509 302.098 44.7268 299.438 44.7268C296.789 44.7268 294.707 43.8617 293.193 42.1315C291.679 40.3905 290.911 37.9573 290.89 34.8322V30.7932C290.89 27.5491 291.641 25.0186 293.144 23.2019C294.648 21.3744 296.735 20.4606 299.406 20.4606C302.033 20.4606 304.104 21.3582 305.618 23.1533C307.132 24.9375 307.9 27.4463 307.921 30.6797V34.7186ZM303.136 30.7608C303.136 28.6304 302.834 27.0462 302.228 26.0081C301.622 24.97 300.682 24.4509 299.406 24.4509C298.14 24.4509 297.205 24.9538 296.599 25.9594C295.994 26.9543 295.68 28.4736 295.659 30.5175V34.7186C295.659 36.7841 295.967 38.3088 296.583 39.2929C297.2 40.2661 298.151 40.7527 299.438 40.7527C300.682 40.7527 301.606 40.2769 302.212 39.3253C302.817 38.3629 303.126 36.876 303.136 34.8646V30.7608Z"/><path fill="#29ABE2" d="M318.497 35.773H316.129V44.4024H311.36V20.785H318.968C321.358 20.785 323.201 21.4068 324.499 22.6504C325.807 23.8832 326.462 25.6404 326.462 27.9221C326.462 31.0581 325.321 33.2533 323.039 34.5077L327.175 44.1753V44.4024H322.05L318.497 35.773ZM316.129 31.7989H318.838C319.79 31.7989 320.503 31.4853 320.979 30.8581C321.455 30.2201 321.693 29.3712 321.693 28.3114C321.693 25.9432 320.768 24.7591 318.919 24.7591H316.129V31.7989ZM341.936 34.1833H334.507V40.4445H343.299V44.4024H329.738V20.785H343.266V24.7591H334.507V30.339H341.936V34.1833ZM362.569 44.4024H357.8L350.825 28.9116V44.4024H346.056V20.785H350.825L357.816 36.292V20.785H362.569V44.4024ZM383.023 34.7186C383.023 37.8871 382.272 40.3472 380.769 42.099C379.276 43.8509 377.2 44.7268 374.54 44.7268C371.891 44.7268 369.809 43.8617 368.295 42.1315C366.781 40.3905 366.013 37.9573 365.992 34.8322V30.7932C365.992 27.5491 366.743 25.0186 368.246 23.2019C369.749 21.3744 371.836 20.4606 374.507 20.4606C377.135 20.4606 379.206 21.3582 380.72 23.1533C382.234 24.9375 383.002 27.4463 383.023 30.6797V34.7186ZM378.238 30.7608C378.238 28.6304 377.935 27.0462 377.33 26.0081C376.724 24.97 375.783 24.4509 374.507 24.4509C373.242 24.4509 372.307 24.9538 371.701 25.9594C371.096 26.9543 370.782 28.4736 370.76 30.5175V34.7186C370.76 36.7841 371.069 38.3088 371.685 39.2929C372.301 40.2661 373.253 40.7527 374.54 40.7527C375.783 40.7527 376.708 40.2769 377.314 39.3253C377.919 38.3629 378.227 36.876 378.238 34.8646V30.7608ZM393.778 37.9141L397.752 20.785H403.072L396.259 44.4024H391.296L384.532 20.785H389.82L393.778 37.9141Z"/></g></g></g><g id="logo"><path id="tracé" fill="#7BB33A" d="M0 60.1886C5.28657 56.8216 13.444 52.6486 23.8946 51.4564C34.0476 50.2976 41.6273 52.4975 48.3056 54.244C105.74 69.2903 138.317 62.1869 143.026 60.9359C144.243 60.6084 145.713 60.1214 145.739 60.1886C145.836 60.4321 130.589 68.2156 111.263 69.1392C108.007 69.2987 105.6 69.2063 103.71 69.1392C83.8149 68.3919 77.2329 62.4136 46.9489 57.401C45.9249 57.2331 45.3997 57.1407 44.6207 57.0316C24.9887 54.1096 9.92545 57.0567 0 60.1886H0Z"/><path id="maison" fill="#7BB33A" d="M94.2304 66.8134L122.466 67.3759C125.889 67.4095 128.689 64.7562 128.689 61.4733V50.3648C128.689 49.9366 129.048 49.6007 129.486 49.6007H133.162C133.503 49.6007 133.801 49.3992 133.915 49.0886L134.51 47.4849C134.624 47.191 134.527 46.8551 134.282 46.6452L108.541 25.0413C108.41 24.9321 108.252 24.865 108.086 24.8566L69.8894 21.7415C69.7056 21.7247 69.5306 21.6492 69.3993 21.5232L58.0209 10.7842C57.8721 10.6415 57.6708 10.5659 57.4607 10.5659H45.3209C45.1196 10.5659 44.9183 10.6415 44.7695 10.7758L9.79408 42.3295C9.54026 42.5646 9.47024 42.9256 9.62778 43.2363L10.4593 44.8316C10.6868 45.2766 11.2908 45.3942 11.6934 45.0751L14.4417 42.8584C14.9581 42.4386 15.7546 42.7913 15.7546 43.4462V54.8317L25.3474 54.8065L46.6513 54.7561L64.3753 58.6605L94.2304 66.8134Z"/><g id="panneaux"><path id="Vector" fill="#fff" d="M111.928 38.6603H118.711C118.921 38.6603 119.298 38.7023 119.438 38.8618L126.781 46.0743C127.175 46.5025 126.86 47.1826 126.274 47.1826H119.709C119.455 47.1826 119.21 47.0819 119.035 46.9055L111.596 39.4327C111.307 39.1473 111.517 38.6603 111.928 38.6603Z"/><path id="Vector_2" fill="#fff" d="M100.191 38.6603H106.974C107.184 38.6603 107.561 38.7023 107.701 38.8618L115.044 46.0743C115.438 46.5025 115.123 47.1826 114.536 47.1826H107.972C107.718 47.1826 107.473 47.0819 107.298 46.9055L99.8584 39.4327C99.5695 39.1473 99.7796 38.6603 100.191 38.6603Z"/><path id="Vector_3" fill="#fff" d="M86.992 38.6603H93.7753C93.9853 38.6603 94.3617 38.7023 94.5017 38.8618L101.845 46.0743C102.239 46.5025 101.924 47.1826 101.338 47.1826H94.7731C94.5192 47.1826 94.2742 47.0819 94.0991 46.9055L86.6594 39.4327C86.3706 39.1473 86.5806 38.6603 86.992 38.6603Z"/><path id="Vector_4" fill="#fff" d="M73.9857 38.6603H80.7689C80.979 38.6603 81.3553 38.7023 81.4954 38.8618L88.8388 46.0743C89.2327 46.5025 88.9176 47.1826 88.3312 47.1826H81.7667C81.5129 47.1826 81.2678 47.0819 81.0928 46.9055L73.6531 39.4327C73.3642 39.1473 73.5743 38.6603 73.9857 38.6603Z"/><path id="Vector_5" fill="#fff" d="M100.191 26.1917H106.974C107.184 26.1917 107.561 26.2336 107.701 26.3932L115.044 33.6057C115.438 34.0339 115.123 34.714 114.536 34.714H107.972C107.718 34.714 107.473 34.6132 107.298 34.4369L99.8584 26.9641C99.5695 26.6786 99.7796 26.1917 100.191 26.1917Z"/><path id="Vector_6" fill="#fff" d="M88.3225 26.1917H95.1057C95.3158 26.1917 95.6921 26.2336 95.8322 26.3932L103.176 33.6057C103.569 34.0339 103.254 34.714 102.668 34.714H96.1035C95.8497 34.714 95.6046 34.6132 95.4296 34.4369L87.9899 26.9641C87.701 26.6786 87.9111 26.1917 88.3225 26.1917Z"/><path id="Vector_7" fill="#fff" d="M75.6312 26.1917H82.4144C82.6245 26.1917 83.0009 26.2336 83.1409 26.3932L90.4843 33.6057C90.8782 34.0339 90.5631 34.714 89.9767 34.714H83.4122C83.1584 34.714 82.9133 34.6132 82.7383 34.4369L75.2986 26.9641C75.0097 26.6786 75.2198 26.1917 75.6312 26.1917Z"/><path id="Vector_8" fill="#fff" d="M62.2922 26.1917H69.0754C69.2855 26.1917 69.6619 26.2336 69.8019 26.3932L77.1453 33.6057C77.5392 34.0339 77.2241 34.714 76.6377 34.714H70.0732C69.8194 34.714 69.5743 34.6132 69.3993 34.4369L61.9596 26.9641C61.6707 26.6786 61.8808 26.1917 62.2922 26.1917Z"/><path id="Vector_9" fill="#fff" d="M51.0101 13.723H57.7933C58.0034 13.723 58.3798 13.7649 58.5198 13.9245L65.8632 21.137C66.2571 21.5652 65.942 22.2453 65.3556 22.2453H58.7911C58.5373 22.2453 58.2922 22.1445 58.1172 21.9682L50.6775 14.4954C50.3886 14.21 50.5987 13.723 51.0101 13.723Z"/></g><g id="leaf"><path id="leaf-2" fill="#7BB33A" d="M106.344 29.8944C102.887 23.9414 105.976 16.9808 106.922 14.8397C111.456 4.64647 123 0.0116639 123.972 1.02763C124.427 1.50622 122.738 3.429 123.394 4.05873C124.077 4.72204 128.724 3.43739 129.468 3.28626C136.759 1.85887 149.065 6.14943 151.665 9.62554C152.295 10.4652 152.54 12.1529 151.735 12.7826C141.617 20.7424 132.996 22.6232 133.083 25.9817C133.127 27.7869 135.919 28.0388 137.153 31.9264C137.512 33.0683 138.081 34.8483 137.346 36.2001C135.368 39.861 125.188 38.0725 123.009 37.6863C116.103 36.4688 109.504 35.3101 106.353 29.8776L106.344 29.8944Z"/><path id="Vector_10" fill="#fff" d="M105.215 28.6182V27.2244C105.215 27.0397 105.285 26.8633 105.407 26.7206L111.797 19.3486C111.876 19.2646 111.928 19.1638 111.954 19.0547L112.409 17.4258C112.462 17.2327 112.55 17.0395 112.663 16.8716L114.659 13.8741C114.694 13.8153 114.738 13.765 114.79 13.723L118.781 10.1713L116.488 13.8405L116.462 13.8825L114.283 16.9304L115.735 16.7205L121.46 13.3619C121.521 13.3283 121.582 13.3032 121.643 13.278L126.046 11.9849L129.521 11.1033C129.573 11.0865 129.635 11.0781 129.696 11.0781L134.256 10.8766L141.223 10.3644L135.21 12.1109L135.061 12.1361L129.888 12.4719C129.888 12.4719 129.81 12.4803 129.766 12.4887L124.672 13.5886L124.225 14.7725L126.256 15.3099C126.309 15.3267 126.361 15.3435 126.405 15.3687L128.348 16.3175C128.435 16.3594 128.523 16.3846 128.619 16.393L131.411 16.7205L128.786 17.4678C128.584 17.5265 128.365 17.5013 128.173 17.409L125.915 16.2839C125.845 16.2503 125.775 16.2251 125.705 16.2083L123.525 15.5198L122.177 15.142L119 16.1747C118.895 16.2083 118.79 16.2671 118.711 16.3426L109.329 24.6635C109.276 24.7055 109.232 24.7558 109.197 24.8146L106.563 28.7021L109.976 27.5182L113.801 26.2756L113.854 26.2588L119.63 23.9666L117.652 25.3856C117.022 25.839 117.363 26.8046 118.151 26.7962L121.538 26.7542L121.985 26.8801L127.91 30.5661L121.162 28.2151L123.508 31.3134L119.49 28.3075C119.35 28.1984 119.175 28.148 119 28.1396L113.556 28.0724C113.495 28.0724 113.442 28.0724 113.381 28.0892L110.764 28.6014C110.676 28.6182 110.598 28.6518 110.519 28.6937L107.429 30.4066C107.097 30.5913 106.668 30.5242 106.405 30.2471L105.39 29.1471C105.259 29.0044 105.189 28.8197 105.189 28.6266L105.215 28.6182Z"/></g></g></g></svg>